<svg viewBox="0 0 92 47" fill="#ffffff" xmlns="http://www.w3.org/2000/svg">
  <path d="M10.7 20.4H4.2v-6.8h4.6v-3.5H4.2V4h6.3V.4H0v23.7h10.7z"/>
  <path d="M20.9 12L25.1.4h-4.3L18.6 8 16.3.4H12L16.2 12l-4.5 12.1h4.2l2.7-8.2 2.6 8.1.1.1h4.1z"/>
  <path class="st0" d="M30.9 14.7H33c5.3 0 6-3.6 6-7.1S38.3.5 33 .5h-6.3v23.7h4.2v-9.5zm0-10.9h1.8c1.9 0 2.2 1.1 2.2 3.7s-.3 3.7-2.2 3.7h-1.8V3.8z"/>
  <path d="M50.9 20.4h-6V.4h-4.1v23.7h10.1z"/>
  <path d="M64.6 18.6V5.9c0-3.6-2.4-5.9-6.1-5.9-3.7 0-6.1 2.3-6.1 5.9v12.7c0 3.6 2.4 5.9 6.1 5.9 3.7 0 6.1-2.4 6.1-5.9zm-8-12.8c0-1.4.6-2.2 1.9-2.2 1.3 0 1.9.7 1.9 2.2v12.9c0 1.4-.6 2.2-1.9 2.2-1.3 0-1.9-.7-1.9-2.2V5.8z"/>
  <path d="M70.9 14.3h1.2l2.7 9.7h4.1l-3.1-10.3c2.2-1 2.8-2.6 2.8-6.2S78 .4 73 .4h-6.3v23.7h4.2v-9.8zm0-10.4h1.4c1.7 0 2.2.8 2.2 3.5S74 11 72.3 11h-1.4V3.9z"/>
  <path d="M84.9 20.4v-6.8h4.6v-3.5h-4.6V4h6.3V.4H80.7v23.7h10.7v-3.7z"/>
  <path d="M3.4 37.9h3.8v-2.8H3.4v-4.8h5.1v-3H0v19.1h8.7v-3.1H3.4z"/>
  <path d="M14.9 27.3h-4.7v19.1h4.7c3.4 0 5.2-1.8 5.2-5.2v-8.7c-.1-3.4-1.8-5.2-5.2-5.2zm-1.3 2.9h1.2c1.4 0 1.8.5 1.8 2.1v9.1c0 1.6-.5 2.1-1.8 2.1h-1.2V30.2z"/>
  <path d="M28.1 38.6L26 27.3h-4.5v19.1h3v-13L27 46.3v.1h2.1l2.5-13.1v13.1h3.2V27.3h-4.5z"/>
  <path d="M41.3 27c-3 0-4.9 1.9-4.9 4.8V42c0 2.9 1.9 4.8 4.9 4.8 3 0 4.9-1.9 4.9-4.8V31.7c.1-2.8-1.9-4.7-4.9-4.7zm-1.5 4.7c0-1.2.5-1.7 1.5-1.7s1.5.5 1.5 1.7V42c0 1.2-.5 1.7-1.5 1.7s-1.5-.5-1.5-1.7V31.7z"/>
  <path d="M54.8 37.8L51 27.3h-3.1v19.1H51v-11l4.1 10.9v.1h2.8V27.3h-3.1z"/>
  <path d="M59.1 30.3h3.4v16.1h3.4V30.3h3.3v-3H59.1z"/>
  <path d="M74.9 27c-3 0-4.9 1.9-4.9 4.8V42c0 2.9 1.9 4.8 4.9 4.8 3 0 4.9-1.9 4.9-4.8V31.7c0-2.8-1.9-4.7-4.9-4.7zm-1.5 4.7c0-1.2.5-1.7 1.5-1.7s1.5.5 1.5 1.7V42c0 1.2-.5 1.7-1.5 1.7s-1.5-.5-1.5-1.7V31.7z"/>
  <path d="M88.3 37.8l-3.8-10.5h-3.1v19.1h3.2v-11l4 10.9v.1h2.8V27.3h-3.1z"/>
</svg>
